<?xml version="1.0" encoding="utf-8"?>
<!-- Generator: Adobe Illustrator 16.0.0, SVG Export Plug-In . SVG Version: 6.00 Build 0)  -->
<!DOCTYPE svg PUBLIC "-//W3C//DTD SVG 1.1//EN" "http://www.w3.org/Graphics/SVG/1.1/DTD/svg11.dtd">
<svg version="1.1" id="Capa_1" xmlns="http://www.w3.org/2000/svg" xmlns:xlink="http://www.w3.org/1999/xlink" x="0px" y="0px"
	 width="199px" height="188.5px" viewBox="0 -56 199 188.5" enable-background="new 0 -56 199 188.5" xml:space="preserve">
<g>
	<g>
		<path fill="#20B999" d="M145.007,72.86l-34.107-28.109c-0.635-0.522-1.521-0.633-2.264-0.285
			c-0.744,0.348-1.219,1.107-1.219,1.931v14.815c-16.556,0.601-27.937,6.441-33.855,17.379c-5.097,9.433-5.049,20.605-5.001,27.998
			c0,0.602,0,1.172,0,1.709c0,0.967,0.648,1.82,1.599,2.074c0.174,0.047,0.363,0.063,0.537,0.063c0.761,0,1.473-0.396,1.852-1.076
			c11.555-20.369,21.067-21.351,34.854-21.398v14.768c0,0.822,0.475,1.582,1.234,1.93c0.76,0.35,1.629,0.238,2.279-0.285
			l34.092-28.203c0.49-0.412,0.775-1.014,0.775-1.646S145.497,73.272,145.007,72.86z M111.69,98.185V85.823
			c0-0.569-0.223-1.107-0.633-1.504c-0.396-0.396-0.951-0.633-1.504-0.633c-8.61,0-15.211,0.237-21.62,3.229
			c-5.54,2.58-10.336,6.965-15.068,13.85c0.19-6.283,1.013-13.785,4.447-20.133c5.445-10.066,15.986-15.053,32.241-15.194
			c1.17-0.017,2.121-0.966,2.121-2.137V50.923l28.6,23.6L111.69,98.185z"/>
	</g>
	<polygon fill="#20B999" points="70.584,107 71.417,96.5 71.417,89.167 74.25,82.667 76.417,76.667 81.25,71.834 88.084,66.5 
		100.084,63.167 110.022,63.167 109.084,47.667 117.084,52.5 137.751,68.834 142.417,74.334 134.084,83.834 122.417,92.167 
		110.022,101.834 110.022,91.667 110.022,85.334 90.917,87.334 83.584,92.667 75.084,100.5 	"/>
</g>
<g>
	<g>
		<path fill="#301F51" stroke="#301F51" stroke-width="2" stroke-miterlimit="10" d="M144.281,49.879
			c-0.57,0-1.143-0.209-1.588-0.632l-26.718-25.065c-0.933-0.872-0.979-2.344-0.103-3.277c0.878-0.943,2.341-0.984,3.283-0.102
			l26.719,25.065c0.933,0.873,0.979,2.345,0.102,3.277C145.517,49.633,144.904,49.879,144.281,49.879z"/>
		<path fill="#301F51" stroke="#301F51" stroke-width="2" stroke-miterlimit="10" d="M55.096,49.879
			c-0.618,0-1.235-0.246-1.695-0.734c-0.878-0.933-0.832-2.404,0.102-3.277L80.23,20.802c0.938-0.873,2.41-0.836,3.283,0.102
			c0.878,0.933,0.832,2.405-0.102,3.277L56.684,49.247C56.238,49.67,55.667,49.879,55.096,49.879z"/>
	</g>
	<path fill="#301F51" stroke="#301F51" stroke-width="2" stroke-miterlimit="10" d="M160.083,73.184H39.299
		c-6.398,0-11.608-5.205-11.608-11.608V-17.58c0-6.403,5.21-11.608,11.608-11.608h120.784c6.398,0,11.608,5.205,11.608,11.608
		v79.155C171.691,67.979,166.481,73.184,160.083,73.184z M39.299-24.545c-3.84,0-6.965,3.125-6.965,6.965v79.155
		c0,3.841,3.125,6.966,6.965,6.966h120.784c3.84,0,6.965-3.125,6.965-6.966V-17.58c0-3.84-3.125-6.965-6.965-6.965H39.299z"/>
	<path fill="#301F51" stroke="#301F51" stroke-width="2" stroke-miterlimit="10" d="M99.691,33.664
		c-3.088,0-6.176-1.025-8.526-3.074L31.545-21.42c-0.966-0.841-1.068-2.308-0.228-3.278c0.85-0.966,2.313-1.054,3.278-0.223
		l59.621,52.005c2.967,2.587,7.983,2.587,10.945,0l59.547-51.921c0.961-0.841,2.424-0.748,3.278,0.223
		c0.84,0.971,0.742,2.433-0.223,3.278l-59.547,51.922C105.862,32.639,102.779,33.664,99.691,33.664z"/>
</g>
<g>
	<path fill="#301F51" stroke="#301F51" stroke-width="2" stroke-miterlimit="10" d="M137.531,68.693l-34.108-28.109
		c-0.634-0.522-1.521-0.633-2.264-0.285c-0.744,0.348-1.219,1.107-1.219,1.931v14.815c-16.555,0.601-27.936,6.441-33.855,17.379
		c-5.097,9.433-5.049,20.605-5.001,27.998c0,0.602,0,1.172,0,1.709c0,0.967,0.648,1.82,1.599,2.074
		c0.174,0.047,0.363,0.063,0.537,0.063c0.761,0,1.473-0.396,1.852-1.076c11.555-20.369,21.067-21.351,34.853-21.398v14.768
		c0,0.822,0.475,1.582,1.234,1.93c0.76,0.35,1.63,0.238,2.279-0.285l34.093-28.203c0.49-0.412,0.775-1.014,0.775-1.646
		S138.021,69.105,137.531,68.693z M104.214,94.018V81.656c0-0.569-0.222-1.107-0.633-1.504c-0.396-0.396-0.95-0.633-1.504-0.633
		c-8.61,0-15.21,0.237-21.62,3.229c-5.54,2.58-10.336,6.965-15.068,13.85c0.19-6.283,1.013-13.785,4.447-20.133
		c5.445-10.066,15.986-15.053,32.241-15.194c1.171-0.017,2.121-0.966,2.121-2.137V46.756l28.601,23.6L104.214,94.018z"/>
</g>
</svg>
